<?xml version="1.0" standalone="no"?>
<!DOCTYPE svg PUBLIC "-//W3C//DTD SVG 1.1//EN" "http://www.w3.org/Graphics/SVG/1.1/DTD/svg11.dtd" >
<svg xmlns="http://www.w3.org/2000/svg">
<metadata>
This is a custom SVG webfont generated by Font Squirrel.
Copyright   : Copyright 19901998 Bitstream Inc  All rights reserved
</metadata>
<defs>
<font id="AvantGardeBkBTBook" horiz-adv-x="1168" >
<font-face units-per-em="2048" ascent="1556" descent="-492" />
<missing-glyph horiz-adv-x="583" />
<glyph unicode=" "  horiz-adv-x="583" />
<glyph unicode="&#x09;" horiz-adv-x="583" />
<glyph unicode="&#xa0;" horiz-adv-x="583" />
<glyph unicode="!" horiz-adv-x="593" d="M225 0v269h144v-269h-144zM225 383v1088h144v-1088h-144z" />
<glyph unicode="&#x22;" horiz-adv-x="574" d="M99 890v558h102v-558h-102zM375 890v558h103v-558h-103z" />
<glyph unicode="#" horiz-adv-x="1590" d="M118 484l40 110h328l102 279h-357l36 108h357l175 488h128l-169 -488h266l174 488h128l-172 -488h319l-38 -108h-320l-99 -279h343l-37 -110h-343l-172 -484h-130l173 484h-271l-174 -484h-128l171 484h-330zM618 594h270l97 279h-269z" />
<glyph unicode="$" d="M154 436h140v-16q0 -142 73 -216t214 -74q134 0 212 73.5t78 197.5q0 197 -312 300q-21 7 -31 10q-193 64 -265.5 145.5t-72.5 221.5q0 147 91 254.5t232 125.5v216h145v-216q149 -17 234 -113t93 -255h-146v4q0 111 -67 177.5t-178 66.5q-120 0 -190.5 -68.5 t-70.5 -183.5q0 -161 287 -260q60 -20 92 -32q166 -61 236 -146t70 -224q0 -174 -99.5 -290t-260.5 -130v-248h-145v248q-162 17 -260.5 136.5t-98.5 295.5z" />
<glyph unicode="%" horiz-adv-x="1813" d="M91 1137q0 152 105.5 257.5t256.5 105.5t257.5 -106t106.5 -257t-106 -256t-258 -105t-257 105t-105 256zM221 1135q0 -95 67.5 -162t161.5 -67q95 0 162 66.5t67 162.5t-66.5 162.5t-162.5 66.5q-95 0 -162 -67t-67 -162zM456 -29l785 1529h118l-786 -1529h-117z M997 333q0 151 105.5 256.5t256.5 105.5t256.5 -105.5t105.5 -256.5q0 -152 -105 -257t-257 -105t-257 105t-105 257zM1125 333q0 -96 67 -163t162 -67q96 0 163.5 67t67.5 163q0 94 -67.5 161t-163.5 67t-162.5 -66.5t-66.5 -161.5z" />
<glyph unicode="&#x26;" horiz-adv-x="1435" d="M130 414q0 132 76 246.5t204 172.5q-98 87 -134 156.5t-36 162.5q0 144 103.5 245t256.5 101q137 0 238 -103.5t101 -242.5q0 -112 -72.5 -204.5t-208.5 -151.5l297 -275l174 458h158l-221 -561l328 -302l-91 -108l-300 271q-68 -149 -183 -228.5t-261 -79.5 q-177 0 -303 129t-126 314zM284 414q0 -132 79 -215t204 -83q96 0 176 62.5t155 196.5l-391 363q-109 -53 -166 -136.5t-57 -187.5zM391 1150q0 -67 37 -124t133 -134q114 44 170.5 111t56.5 155q0 86 -57 146t-137 60q-90 0 -146.5 -59t-56.5 -155z" />
<glyph unicode="'" horiz-adv-x="297" d="M99 890v558h102v-558h-102z" />
<glyph unicode="(" horiz-adv-x="546" d="M126 170v713q0 227 77 380t233 237v-164q-91 -72 -129 -172t-38 -306v-663q0 -206 38 -306t129 -173v-162q-156 82 -233 235t-77 381z" />
<glyph unicode=")" horiz-adv-x="546" d="M110 -284q91 73 129 173t38 306v663q0 206 -38 306t-129 172v164q157 -84 233.5 -237t76.5 -380v-713q0 -228 -76.5 -381t-233.5 -235v162z" />
<glyph unicode="*" horiz-adv-x="1034" d="M126 1139l38 120l294 -96v308h115v-308l292 96l41 -120l-304 -87l207 -253l-106 -75l-188 267l-184 -267l-108 75l203 253z" />
<glyph unicode="+" horiz-adv-x="1723" d="M257 567v99h556v567h99v-567h555v-99h-555v-567h-99v567h-556z" />
<glyph unicode="," horiz-adv-x="583" d="M105 -164l158 433h144l-157 -433h-145z" />
<glyph unicode="-" horiz-adv-x="665" d="M95 488v134h474v-134h-474z" />
<glyph unicode="." horiz-adv-x="583" d="M219 0v269h145v-269h-145z" />
<glyph unicode="/" horiz-adv-x="574" d="M-49 -192l502 1663h122l-502 -1663h-122z" />
<glyph unicode="0" d="M87 517v436q0 143 20 215t67 135q72 96 178 147.5t232 51.5q231 0 364.5 -143.5t133.5 -396.5v-451q0 -119 -19.5 -197.5t-61.5 -137.5q-70 -98 -179 -151.5t-238 -53.5q-126 0 -231.5 51t-180.5 148q-45 56 -65 137.5t-20 209.5zM229 486q0 -183 94 -285t261 -102 q165 0 259 101t94 282v507q0 180 -94.5 281.5t-258.5 101.5q-167 0 -261 -102.5t-94 -286.5v-497z" />
<glyph unicode="1" d="M273 1344v127h410v-1471h-154v1344h-256z" />
<glyph unicode="2" d="M134 0v142l521 495q155 147 205 231.5t50 175.5q0 139 -90.5 232.5t-229.5 93.5q-144 0 -229.5 -95.5t-85.5 -254.5q0 -8 1 -21t1 -20h-143v22q0 222 131 361.5t337 139.5q187 0 317.5 -135t130.5 -333q0 -114 -55 -218.5t-174 -215.5l-496 -458h721v-142h-912z" />
<glyph unicode="3" d="M110 446h147v-12q0 -145 90 -241t224 -96q144 0 237.5 95.5t93.5 243.5q0 169 -99 256.5t-290 87.5q-27 0 -41.5 -0.5t-26.5 -1.5v122q12 -1 25 -1.5t39 -0.5q145 0 218.5 60t73.5 179q0 103 -62.5 170t-157.5 67q-108 0 -170 -65.5t-64 -182.5h-134q9 172 110 273 t265 101q150 0 255.5 -107.5t105.5 -255.5q0 -88 -33.5 -153t-108.5 -119q120 -64 180.5 -167.5t60.5 -247.5q0 -203 -133.5 -341t-335.5 -138q-215 0 -340.5 127t-128.5 348z" />
<glyph unicode="4" d="M89 284v128l666 1059h165v-1059h160v-128h-160v-284h-142v284h-689zM240 412h542l6 889z" />
<glyph unicode="5" d="M85 446h146q8 -143 112 -243t243 -100q148 0 250.5 111.5t102.5 275.5q0 165 -102.5 268t-267.5 103q-94 0 -170 -42t-134 -128l-111 51l130 729h663v-145h-540l-74 -410q64 46 126 66.5t135 20.5q215 0 352.5 -145.5t137.5 -371.5q0 -214 -147 -364.5t-356 -150.5 q-199 0 -339.5 133.5t-156.5 341.5z" />
<glyph unicode="6" d="M85 456q0 175 182 456q18 27 27 41l333 518h180l-343 -532q47 11 86.5 17t71.5 6q200 0 331 -139.5t131 -350.5q0 -216 -142.5 -358.5t-360.5 -142.5q-214 0 -355 139.5t-141 345.5zM235 470q0 -156 105 -263.5t254 -107.5q144 0 241.5 104t97.5 265q0 159 -96.5 262 t-244.5 103q-152 0 -254.5 -105t-102.5 -258z" />
<glyph unicode="7" d="M207 1326v145h811v-133l-588 -1338h-161l581 1326h-643z" />
<glyph unicode="8" d="M114 438q0 127 52 216.5t171 166.5q-77 52 -117 125t-40 165q0 158 117.5 273.5t283.5 115.5q172 0 290 -112t118 -267q0 -101 -40 -174t-124 -126q116 -66 172.5 -157t56.5 -216q0 -208 -133.5 -342.5t-345.5 -134.5q-193 0 -327 135.5t-134 331.5zM261 422 q0 -140 91 -232.5t223 -92.5q144 0 237.5 94t93.5 237q0 148 -88 237.5t-232 89.5q-151 0 -238 -89t-87 -244zM325 1133q0 -109 69.5 -177t180.5 -68q132 0 202.5 62t70.5 179q0 106 -73 173.5t-187 67.5q-112 0 -187.5 -68t-75.5 -169z" />
<glyph unicode="9" d="M85 1001q0 217 141.5 359t359.5 142q214 0 356 -140t142 -344q0 -177 -182 -456q-17 -28 -26 -42l-334 -520h-180l343 533q-47 -11 -86.5 -16.5t-72.5 -5.5q-200 0 -330.5 139.5t-130.5 350.5zM235 1005q0 -160 96.5 -263t245.5 -103q151 0 253.5 105t102.5 259 q0 155 -104.5 262t-253.5 107q-145 0 -242.5 -103t-97.5 -264z" />
<glyph unicode=":" horiz-adv-x="593" d="M225 0v269h144v-269h-144zM225 842v269h144v-269h-144z" />
<glyph unicode=";" horiz-adv-x="593" d="M105 -164l158 433h144l-157 -433h-145zM225 842v269h144v-269h-144z" />
<glyph unicode="&#x3c;" horiz-adv-x="1723" d="M267 575v83l1189 488v-110l-1032 -420l1032 -417v-110z" />
<glyph unicode="=" horiz-adv-x="1723" d="M257 379v99h1210v-99h-1210zM257 755v99h1210v-99h-1210z" />
<glyph unicode="&#x3e;" horiz-adv-x="1723" d="M267 89v110l1032 417l-1032 420v110l1189 -488v-83z" />
<glyph unicode="?" horiz-adv-x="957" d="M45 1022q3 216 124 347t317 131q183 0 297.5 -121.5t114.5 -312.5q0 -189 -168 -339q-16 -14 -25 -22q-83 -77 -117.5 -146t-35.5 -157l-145 -1q0 95 39.5 185t116.5 174q18 19 54 53q127 120 127 255q0 131 -71 205.5t-195 74.5q-132 0 -204.5 -83.5t-78.5 -242.5h-150z M407 0v269h145v-269h-145z" />
<glyph unicode="@" horiz-adv-x="2068" d="M118 542q0 206 87 385.5t255 317.5q133 110 301 167t364 57q164 0 311.5 -44.5t251.5 -125.5q130 -100 196 -230.5t66 -282.5q0 -173 -62.5 -313t-182.5 -235q-71 -54 -150.5 -83t-162.5 -29q-98 0 -146 38t-48 115q0 4 1 14t1 15q-52 -88 -128.5 -135t-169.5 -47 q-155 0 -235.5 84.5t-80.5 247.5q0 232 136 391.5t332 159.5q95 0 160 -41.5t97 -123.5l61 127h95l-141 -568q-10 -44 -13.5 -63t-3.5 -30q0 -43 29 -68t79 -25q53 0 108 21.5t105 61.5q98 78 152.5 206.5t54.5 285.5q0 256 -200 421t-514 165q-177 0 -323.5 -50 t-264.5 -151q-148 -128 -224 -294t-76 -366q0 -176 61 -308t186 -234q103 -83 246.5 -129.5t303.5 -46.5q173 0 338 50t304 145l39 -56q-149 -112 -314.5 -168t-346.5 -56q-192 0 -350 47t-278 140q-156 119 -231 276t-75 365zM709 448q0 -112 55.5 -174.5t153.5 -62.5 q108 0 191.5 72.5t112.5 190.5l63 250q-18 94 -76.5 147t-140.5 53q-156 0 -257.5 -135t-101.5 -341z" />
<glyph unicode="A" horiz-adv-x="1235" d="M-52 0l571 1471h174l568 -1471h-154l-176 462h-654l-176 -462h-153zM327 594h554l-279 738z" />
<glyph unicode="B" horiz-adv-x="1052" d="M136 0v1471h274q250 0 367 -94.5t117 -294.5q0 -101 -39.5 -173t-118.5 -117q119 -50 179 -139t60 -219q0 -224 -124 -329t-389 -105h-326zM275 140h203q178 0 263.5 68t85.5 208q0 141 -87 210t-262 69h-203v-555zM275 835h87q214 0 299 59t85 194q0 126 -82.5 184 t-264.5 58h-124v-495z" />
<glyph unicode="C" horiz-adv-x="1555" d="M62 744q0 155 58.5 293.5t171.5 249.5q105 105 236 159t283 54q219 0 394.5 -107t277.5 -303h-174q-99 137 -221 201.5t-279 64.5q-245 0 -419.5 -181.5t-174.5 -432.5q0 -266 173.5 -449t420.5 -183q153 0 276 63.5t214 190.5h172q-101 -188 -271 -290.5t-381 -102.5 q-324 0 -540.5 221t-216.5 552z" />
<glyph unicode="D" horiz-adv-x="1379" d="M136 0v1471h418q173 0 291 -34.5t207 -110.5q127 -106 196.5 -259.5t69.5 -328.5q0 -195 -76.5 -355t-217.5 -261q-93 -65 -201 -93.5t-333 -28.5h-354zM279 138h300q281 0 432.5 157.5t151.5 446.5q0 145 -52 267t-147 205q-72 63 -161 89.5t-259 26.5h-265v-1192z" />
<glyph unicode="E" horiz-adv-x="1038" d="M136 0v1471h764v-145h-618v-515h618v-145h-618v-524h618v-142h-764z" />
<glyph unicode="F" horiz-adv-x="1000" d="M136 0v1471h727v-145h-584v-515h584v-145h-584v-666h-143z" />
<glyph unicode="G" horiz-adv-x="1628" d="M62 744q0 155 58.5 293.5t171.5 249.5q109 108 241.5 160.5t293.5 52.5q214 0 384.5 -103.5t273.5 -295.5h-178q-104 132 -222.5 195t-265.5 63q-253 0 -428.5 -181t-175.5 -436q0 -270 175 -451t431 -181q202 0 362 129.5t209 335.5h-743v130h914q-18 -321 -231 -527.5 t-523 -206.5q-318 0 -532.5 222t-214.5 551z" />
<glyph unicode="H" horiz-adv-x="1263" d="M136 0v1471h146v-660h699v660h144v-1471h-144v671h-699v-671h-146z" />
<glyph unicode="I" horiz-adv-x="416" d="M134 0v1471h145v-1471h-145z" />
<glyph unicode="J" horiz-adv-x="924" d="M27 358h145q6 -110 70 -177t159 -67q134 0 190 85.5t56 340.5v931h145v-991q0 -130 -13.5 -202.5t-46.5 -125.5q-50 -87 -139.5 -135t-199.5 -48q-165 0 -265.5 106.5t-100.5 282.5z" />
<glyph unicode="K" horiz-adv-x="1111" d="M134 0v1471h143v-818l680 818h172l-594 -711l584 -760h-178l-499 651l-165 -198v-453h-143z" />
<glyph unicode="L" horiz-adv-x="852" d="M136 0v1471h146v-1329h517v-142h-663z" />
<glyph unicode="M" horiz-adv-x="1708" d="M144 0v1471h214l509 -1279l507 1279h213v-1471h-139v1299l-517 -1299h-130l-517 1299v-1299h-140z" />
<glyph unicode="N" horiz-adv-x="1379" d="M132 0v1471h174l807 -1295l-17 1295h143v-1471h-173l-807 1297l16 -1297h-143z" />
<glyph unicode="O" horiz-adv-x="1628" d="M62 744q0 154 59 293.5t171 249.5q108 106 238 159.5t281 53.5q155 0 286.5 -54t240.5 -161q112 -110 168.5 -246.5t56.5 -294.5q0 -156 -48 -287t-145 -238q-113 -123 -254 -185.5t-307 -62.5q-317 0 -532 222.5t-215 550.5zM213 742q0 -268 175 -450t431 -182 q251 0 423.5 184t172.5 452q0 251 -178 432t-428 181q-102 0 -196.5 -34.5t-174.5 -102.5q-105 -89 -165 -217t-60 -263z" />
<glyph unicode="P" horiz-adv-x="1044" d="M120 0v1471h312q135 0 215.5 -14.5t134.5 -45.5q97 -59 149 -152t52 -211q0 -111 -47 -205.5t-131 -149.5q-59 -40 -140 -57.5t-207 -17.5h-193v-618h-145zM265 766h213q177 0 262 67.5t85 208.5q0 148 -85.5 216t-273.5 68h-201v-560z" />
<glyph unicode="Q" horiz-adv-x="1628" d="M62 744q0 154 59 293.5t171 249.5q108 106 238 159.5t281 53.5q324 0 538 -220.5t214 -559.5q0 -163 -58.5 -297t-178.5 -247q46 -31 102 -44.5t133 -13.5h20v-128q-5 -1 -13 -1q-44 -3 -60 -3q-70 0 -148 26.5t-148 76.5q-90 -59 -190.5 -88.5t-210.5 -29.5 q-315 0 -532 222.5t-217 550.5zM213 750q0 -47 6 -94t19 -95q79 37 155 54.5t159 17.5q173 0 319 -78t343 -288q98 98 149.5 220.5t51.5 258.5q0 251 -178 432t-428 181q-242 0 -419 -182.5t-177 -426.5zM288 430q83 -151 224.5 -237t306.5 -86q68 0 135.5 18t141.5 55 q-186 194 -300.5 254t-258.5 60q-57 0 -117 -15t-132 -49z" />
<glyph unicode="R" horiz-adv-x="1150" d="M116 0v1471h395q130 0 209.5 -20t144.5 -65q87 -62 138 -165t51 -218q0 -171 -101.5 -294t-253.5 -134l355 -575h-171l-437 709h140q139 0 226.5 82t87.5 210q0 78 -27 141.5t-79 110.5q-44 40 -105 56.5t-217 16.5h-213v-1326h-143z" />
<glyph unicode="S" horiz-adv-x="961" d="M59 420h139q4 -136 77 -217t193 -81q128 0 203 80.5t75 217.5q0 200 -309 302l-36 12q-162 56 -233 141.5t-71 222.5q0 176 109.5 288t283.5 112q165 0 262 -102t109 -287h-137q-11 120 -71.5 185t-162.5 65q-109 0 -178.5 -71t-69.5 -181q0 -58 21 -99.5t66 -76.5 q47 -34 178 -77q76 -24 115 -39q144 -55 207 -141.5t63 -227.5q0 -214 -116.5 -344.5t-309.5 -130.5q-180 0 -292 123.5t-115 325.5z" />
<glyph unicode="T" horiz-adv-x="757" d="M12 1326v145h732v-145h-294v-1326h-144v1326h-294z" />
<glyph unicode="U" d="M114 535v936h145v-931q0 -108 8.5 -161.5t28.5 -94.5q39 -84 115.5 -131.5t172.5 -47.5q166 0 246 113.5t80 352.5v900h142v-936q0 -286 -113.5 -426t-344.5 -140q-248 0 -364 137t-116 429z" />
<glyph unicode="V" horiz-adv-x="1150" d="M-41 1471h144l466 -1254l467 1254h145l-554 -1471h-114z" />
<glyph unicode="W" horiz-adv-x="1681" d="M-31 1471h143l366 -1206l298 1206h132l296 -1206l368 1206h141l-456 -1471h-120l-295 1200l-296 -1200h-120z" />
<glyph unicode="X" horiz-adv-x="1176" d="M-6 0l511 740l-499 731h180l404 -610l403 610h178l-498 -731l510 -740h-182l-411 624l-418 -624h-178z" />
<glyph unicode="Y" horiz-adv-x="990" d="M-49 1471h165l376 -764l381 764h161l-471 -931v-540h-143v542z" />
<glyph unicode="Z" horiz-adv-x="947" d="M39 0v138l687 1188h-645v145h813v-139l-689 -1190h703v-142h-869z" />
<glyph unicode="[" horiz-adv-x="546" d="M134 -414v1885h336v-121h-193v-1646h193v-118h-336z" />
<glyph unicode="\" horiz-adv-x="574" d="M0 1471h120l504 -1663h-121z" />
<glyph unicode="]" horiz-adv-x="546" d="M77 -296h192v1646h-192v121h335v-1885h-335v118z" />
<glyph unicode="^" horiz-adv-x="2068" d="M426 910l538 563h141l535 -563h-144l-462 460l-463 -460h-145z" />
<glyph unicode="_" horiz-adv-x="1034" d="M0 -387h1034v-101h-1034v101z" />
<glyph unicode="`" horiz-adv-x="1034" d="M279 1613h153l211 -354h-93z" />
<glyph unicode="a" horiz-adv-x="1302" d="M58 550q0 250 166 417.5t415 167.5q129 0 236 -52t177 -150v178h140v-1111h-140v176q-66 -96 -179.5 -150.5t-245.5 -54.5q-244 0 -406.5 167t-162.5 412zM205 544q0 -185 125.5 -313t300.5 -128q170 0 295.5 135t125.5 325q0 176 -126 308t-291 132q-178 0 -304 -132 t-126 -327z" />
<glyph unicode="b" horiz-adv-x="1302" d="M110 0v1471h140v-464v-83q90 108 197 159.5t240 51.5q234 0 396 -168.5t162 -409.5q0 -250 -165.5 -418t-415.5 -168q-124 0 -226.5 49t-187.5 148v-168h-140zM250 544q0 -177 126 -309t290 -132q178 0 304 132.5t126 327.5q0 184 -125.5 312t-299.5 128 q-175 0 -298 -133.5t-123 -325.5z" />
<glyph unicode="c" horiz-adv-x="1253" d="M58 552q0 247 168 418t409 171q181 0 319 -97.5t206 -273.5h-157q-66 121 -160.5 179t-224.5 58q-172 0 -291.5 -130.5t-119.5 -322.5q0 -191 120 -320t297 -129q129 0 228 63.5t151 178.5h157q-64 -180 -202.5 -279t-326.5 -99q-241 0 -407 171t-166 412z" />
<glyph unicode="d" horiz-adv-x="1302" d="M58 557q0 244 162.5 411t406.5 167q132 0 239.5 -51t181.5 -149v248v288h144v-1471h-144v168q-74 -93 -185.5 -145t-235.5 -52q-240 0 -404.5 169.5t-164.5 416.5zM205 563q0 -195 126 -327.5t304 -132.5q165 0 291 132.5t126 308.5q0 190 -125.5 324.5t-295.5 134.5 q-175 0 -300.5 -128t-125.5 -312z" />
<glyph unicode="e" horiz-adv-x="1253" d="M54 557q0 253 164 418.5t419 165.5q251 0 409 -172t158 -448v-10h-1003q13 -182 131 -294t295 -112q125 0 225 65t155 181h162q-77 -184 -216 -283t-322 -99q-242 0 -409.5 172.5t-167.5 415.5zM205 631h841q-40 187 -148 281.5t-282 94.5q-162 0 -274 -101.5 t-137 -274.5z" />
<glyph unicode="f" horiz-adv-x="568" d="M25 987v124h143v30q0 177 89 262t274 85h13v-129q-128 -2 -181 -51t-53 -167v-30h234v-124h-232v-987h-138v987h-149z" />
<glyph unicode="g" horiz-adv-x="1292" d="M54 559q0 245 163.5 411.5t404.5 166.5q141 0 243.5 -50.5t180.5 -157.5v182h140v-927q0 -291 -146 -454.5t-403 -163.5q-189 0 -324 93.5t-175 249.5h166q32 -97 117 -151t206 -54q190 0 304.5 126.5t114.5 337.5v29q-80 -110 -183 -166t-228 -56q-250 0 -415.5 167 t-165.5 417zM205 565q0 -195 123.5 -326.5t298.5 -131.5q165 0 291 132t126 309q0 190 -124 324.5t-293 134.5q-174 0 -298 -128t-124 -314z" />
<glyph unicode="h" horiz-adv-x="1154" d="M112 0v1471h140v-490q62 75 148.5 113.5t193.5 38.5q234 0 341 -133.5t107 -434.5v-565h-140v567q0 241 -73 335.5t-243 94.5q-97 0 -170.5 -39t-115.5 -112q-26 -45 -37 -103t-11 -203v-540h-140z" />
<glyph unicode="i" horiz-adv-x="374" d="M116 0v1111h143v-1111h-143zM116 1241v230h143v-230h-143z" />
<glyph unicode="j" horiz-adv-x="374" d="M-20 -225q80 0 108 29.5t28 170.5v1136h143v-1115q0 -202 -56.5 -278t-192.5 -76h-30v133zM116 1241v230h143v-230h-143z" />
<glyph unicode="k" horiz-adv-x="856" d="M116 0v1471h143v-875l401 515h163l-403 -515l490 -596h-180l-471 579v-579h-143z" />
<glyph unicode="l" horiz-adv-x="374" d="M116 0v1471h143v-1471h-143z" />
<glyph unicode="m" horiz-adv-x="1926" d="M112 0v1111h140v-126q64 73 150.5 110.5t195.5 37.5q126 0 230 -53t159 -143q67 96 167.5 146t225.5 50q226 0 329 -135.5t103 -436.5v-561h-136v590q0 220 -73 313.5t-237 93.5q-95 0 -167.5 -39t-114.5 -112q-26 -45 -37 -103t-11 -203v-540h-134v622q0 192 -78 283.5 t-238 91.5q-97 0 -170.5 -39t-115.5 -112q-26 -45 -37 -103t-11 -203v-540h-140z" />
<glyph unicode="n" horiz-adv-x="1154" d="M114 0v1111h138v-126q66 75 152.5 111.5t197.5 36.5q122 0 217.5 -45.5t151.5 -130.5q38 -59 54.5 -139.5t16.5 -236.5v-581h-140v622q0 197 -75.5 286t-240.5 89q-97 0 -170.5 -39t-115.5 -112q-26 -45 -37 -103t-11 -203v-540h-138z" />
<glyph unicode="o" horiz-adv-x="1253" d="M54 554q0 245 167.5 418.5t396.5 173.5q242 0 412 -170.5t170 -406.5q0 -249 -166.5 -424.5t-404.5 -175.5q-241 0 -408 172t-167 413zM203 557q0 -192 122 -322t304 -130q179 0 300 130t121 324q0 196 -122.5 323t-311.5 127q-170 0 -291.5 -130.5t-121.5 -321.5z" />
<glyph unicode="p" horiz-adv-x="1302" d="M110 -360v1471h140v-182q61 94 173.5 150t240.5 56q251 0 416 -167t165 -418q0 -244 -163 -411.5t-407 -167.5q-136 0 -244.5 52.5t-180.5 152.5v-77v-166v-293h-140zM250 563q0 -190 125.5 -325t295.5 -135q174 0 299.5 128t125.5 313q0 195 -126 327t-304 132 q-165 0 -290.5 -132.5t-125.5 -307.5z" />
<glyph unicode="q" horiz-adv-x="1302" d="M58 550q0 250 166 417.5t415 167.5q127 0 232.5 -52t176.5 -150v178h144v-1471h-144v528q-70 -94 -180 -145.5t-241 -51.5q-244 0 -406.5 167t-162.5 412zM205 544q0 -185 125.5 -313t300.5 -128q170 0 295.5 135t125.5 325q0 176 -126 308t-291 132q-178 0 -304 -132 t-126 -327z" />
<glyph unicode="r" horiz-adv-x="517" d="M112 0v1111h134v-128q53 73 115 107.5t145 36.5l1 -154q-134 -12 -192 -80.5t-58 -221.5v-671h-145z" />
<glyph unicode="s" horiz-adv-x="804" d="M43 349h147v-4q0 -104 59.5 -172t147.5 -68q84 0 139.5 52.5t55.5 132.5t-44 128.5t-159 90.5q-185 66 -241.5 134.5t-56.5 183.5q0 130 94.5 221t228.5 91q143 0 226.5 -80.5t89.5 -225.5h-152q-5 79 -50 122.5t-123 43.5q-70 0 -116.5 -47t-46.5 -117q0 -49 19.5 -83 t63.5 -61q41 -25 118 -48.5t103 -34.5q104 -44 153 -118t49 -188q0 -143 -100 -237t-253 -94q-157 0 -252 102.5t-100 275.5z" />
<glyph unicode="t" horiz-adv-x="564" d="M0 968v143h211v360h143v-360h211v-143h-211v-968h-143v968h-211z" />
<glyph unicode="u" horiz-adv-x="1154" d="M110 531v580h140v-590q0 -227 74 -321.5t243 -94.5q96 0 168.5 39t116.5 113q26 43 37 102t11 206v546h142v-1111h-142v120q-65 -79 -144.5 -114t-192.5 -35q-241 0 -347 129.5t-106 430.5z" />
<glyph unicode="v" horiz-adv-x="986" d="M-16 1111h150l356 -896l358 896h155l-455 -1111h-130z" />
<glyph unicode="w" horiz-adv-x="1435" d="M-6 1111h148l272 -832l255 832h103l254 -832l269 832h151l-374 -1111h-93l-261 846l-256 -846h-93z" />
<glyph unicode="x" horiz-adv-x="856" d="M-31 0l376 577l-331 534h160l258 -420l277 420h164l-360 -532l358 -579h-162l-285 464l-298 -464h-157z" />
<glyph unicode="y" horiz-adv-x="953" d="M-33 1111h163l344 -902l359 902h166l-600 -1471h-153l149 362z" />
<glyph unicode="z" horiz-adv-x="833" d="M20 0v134l580 843h-515v134h673v-154l-568 -815h598v-142h-768z" />
<glyph unicode="{" horiz-adv-x="1034" d="M176 482v110q9 0 23.5 -1t21.5 -1q140 0 197.5 63.5t57.5 219.5v244q0 225 70.5 300t268.5 75h48v-108h-38q-132 0 -178.5 -50t-46.5 -207v-244q0 -170 -44 -242.5t-155 -105.5q111 -31 155 -103.5t44 -243.5v-244q0 -156 45.5 -206t171.5 -50q7 0 22 1t24 1v-108h-48 q-199 0 -269 73t-70 300v246q0 156 -57.5 219.5t-197.5 63.5q-7 0 -21.5 -1t-23.5 -1z" />
<glyph unicode="|" horiz-adv-x="1034" d="M464 -488v2069h109v-2069h-109z" />
<glyph unicode="}" horiz-adv-x="1034" d="M174 -310h39q131 0 177 49.5t46 204.5v244q0 173 43.5 244.5t155.5 102.5q-112 33 -155.5 104.5t-43.5 243.5v244q0 159 -45.5 209t-171.5 50q-7 0 -22 -1t-23 -1v108h47q198 0 269 -75t71 -300v-244q0 -156 57.5 -219.5t196.5 -63.5q7 0 22 1t24 1v-110q-9 0 -24 1 t-22 1q-139 0 -196.5 -63.5t-57.5 -219.5v-246q0 -226 -70.5 -299.5t-269.5 -73.5h-47v108z" />
<glyph unicode="~" horiz-adv-x="1723" d="M180 476v114q107 74 204 110t187 36q105 0 274 -61q11 -4 19 -7q9 -3 31 -12q169 -60 259 -60q86 0 179 38.5t212 123.5v-115q-103 -72 -200 -108t-191 -36q-100 0 -262 58q-20 7 -29 10l-17 6q-177 64 -275 64q-84 0 -177 -38t-214 -123z" />
<glyph d="M-6 537l26 112h120v170h-138l27 112h111v22q0 143 20.5 215t66.5 135q73 96 178.5 147.5t231.5 51.5q212 0 347.5 -131t144.5 -287h-146q-22 137 -113.5 212.5t-232.5 75.5q-166 0 -259.5 -102.5t-93.5 -286.5v-52h645l-27 -112h-618v-170h597l-27 -112h-570v-51 q0 -183 93.5 -285t259.5 -102q136 0 225 69.5t117 197.5h148q-8 -57 -25 -102.5t-48 -87.5q-69 -98 -177.5 -151.5t-239.5 -53.5q-126 0 -231 51t-181 148q-44 56 -64.5 137.5t-20.5 209.5v20h-146z" />
<glyph unicode="&#x20ac;" d="M-6 537l26 112h120v170h-138l27 112h111v22q0 143 20.5 215t66.5 135q73 96 178.5 147.5t231.5 51.5q212 0 347.5 -131t144.5 -287h-146q-22 137 -113.5 212.5t-232.5 75.5q-166 0 -259.5 -102.5t-93.5 -286.5v-52h645l-27 -112h-618v-170h597l-27 -112h-570v-51 q0 -183 93.5 -285t259.5 -102q136 0 225 69.5t117 197.5h148q-8 -57 -25 -102.5t-48 -87.5q-69 -98 -177.5 -151.5t-239.5 -53.5q-126 0 -231 51t-181 148q-44 56 -64.5 137.5t-20.5 209.5v20h-146z" />
<glyph unicode="&#xa0;" />
<glyph unicode="&#xa1;" horiz-adv-x="593" d="M225 0v1086h144v-1086h-144zM225 1202v269h144v-269h-144z" />
<glyph unicode="&#xa2;" d="M71 730q0 224 131 386.5t340 194.5v213h135v-208q174 -20 289.5 -121t164.5 -277h-148q-43 135 -136 204.5t-233 69.5q-166 0 -281.5 -133t-115.5 -329q0 -195 116.5 -326t290.5 -131q130 0 226 75t133 206h148q-58 -182 -174 -285t-280 -121v-231h-135v235 q-204 28 -337.5 193.5t-133.5 384.5z" />
<glyph unicode="&#xa3;" d="M69 679v140h146q-22 70 -31.5 121.5t-9.5 95.5q0 198 132.5 330t336.5 132q175 0 290 -100.5t151 -282.5h-133q-26 120 -107 187.5t-199 67.5q-146 0 -238.5 -92.5t-92.5 -237.5q0 -48 13.5 -102.5t43.5 -118.5h498v-142h-389q42 -76 61.5 -145.5t19.5 -148.5 q0 -75 -17.5 -135t-54.5 -120q30 -3 59 -4.5t56 -1.5q190 0 281.5 70t91.5 215q0 19 -4 50t-13 78h143q8 -44 11 -71t3 -48q0 -92 -32 -172.5t-90 -138.5q-58 -56 -138 -80.5t-216 -24.5h-519v128h225q43 53 62 110t19 131q0 78 -23 148t-83 162h-253z" />
<glyph unicode="&#xa4;" d="M-6 537l26 112h120v170h-138l27 112h111v22q0 143 20.5 215t66.5 135q73 96 178.5 147.5t231.5 51.5q212 0 347.5 -131t144.5 -287h-146q-22 137 -113.5 212.5t-232.5 75.5q-166 0 -259.5 -102.5t-93.5 -286.5v-52h645l-27 -112h-618v-170h597l-27 -112h-570v-51 q0 -183 93.5 -285t259.5 -102q136 0 225 69.5t117 197.5h148q-8 -57 -25 -102.5t-48 -87.5q-69 -98 -177.5 -151.5t-239.5 -53.5q-126 0 -231 51t-181 148q-44 56 -64.5 137.5t-20.5 209.5v20h-146z" />
<glyph unicode="&#xa5;" d="M45 1460h164l379 -755l372 755h163l-262 -505h185v-111h-245l-89 -169h334v-112h-393v-563h-142v563h-395v112h337l-87 169h-250v111h190z" />
<glyph unicode="&#xa6;" horiz-adv-x="1034" d="M464 -354v766h109v-766h-109zM464 681v765h109v-765h-109z" />
<glyph unicode="&#xa7;" horiz-adv-x="1034" d="M110 701q0 100 49 173t151 127q-55 42 -80 91.5t-25 117.5q0 126 88.5 208t227.5 82q148 0 232 -84.5t84 -232.5v-25h-129q-2 107 -53.5 164.5t-145.5 57.5q-74 0 -119 -46t-45 -120q0 -58 35.5 -107t107.5 -91l205 -122q124 -74 175.5 -146.5t51.5 -170.5 q0 -89 -49.5 -161t-146.5 -122q54 -48 80.5 -105.5t26.5 -124.5q0 -125 -93 -205t-235 -80q-153 0 -243 86.5t-90 231.5q0 6 1 16t1 15h138v-12q0 -102 51.5 -157.5t145.5 -55.5q86 0 135 44.5t49 123.5q0 62 -34 109t-130 106l-217 134q-99 62 -149.5 133t-50.5 148z M250 736q0 -54 37.5 -107t107.5 -98l250 -158q68 45 98.5 90t30.5 102q0 62 -35.5 111t-122.5 104l-223 138q-69 -27 -106 -74.5t-37 -107.5z" />
<glyph unicode="&#xa8;" horiz-adv-x="1034" d="M259 1326v166h142v-166h-142zM631 1326v166h145v-166h-145z" />
<glyph unicode="&#xa9;" horiz-adv-x="1723" d="M122 730q0 147 57 282.5t164 244.5q102 104 234.5 159t283.5 55q150 0 286 -56.5t241 -161.5q103 -103 158 -237.5t55 -285.5t-54 -283.5t-159 -235.5q-108 -107 -244.5 -164t-282.5 -57q-147 0 -281.5 56t-240.5 163q-106 105 -161.5 239.5t-55.5 281.5zM203 730 q0 -130 50 -249t144 -214q95 -94 214 -144t250 -50t252.5 50.5t218.5 145.5q92 90 140 208t48 253q0 134 -49 254t-141 212q-95 95 -215 144.5t-254 49.5t-252 -48.5t-210 -141.5q-95 -97 -145.5 -217.5t-50.5 -252.5zM474 734q0 205 108.5 329.5t286.5 124.5 q136 0 228.5 -73t104.5 -191h-118q-18 81 -76 125.5t-143 44.5q-124 0 -192.5 -96t-68.5 -270q0 -167 69.5 -262t191.5 -95q89 0 152 51t79 139h116q-11 -127 -109.5 -207.5t-244.5 -80.5q-178 0 -281 123t-103 338z" />
<glyph unicode="&#xaa;" horiz-adv-x="978" d="M43 1078q0 174 124.5 292t312.5 118q96 0 176 -36.5t134 -105.5v125h104v-778h-104v124q-50 -68 -135.5 -106t-184.5 -38q-183 0 -305 117t-122 288zM154 1074q0 -130 94 -219t226 -89q127 0 221.5 93.5t94.5 226.5q0 124 -95 217t-219 93q-134 0 -228 -93t-94 -229z" />
<glyph unicode="&#xab;" horiz-adv-x="943" d="M116 554l248 325h139l-251 -325l251 -323h-139zM422 554l249 325h138l-248 -325l248 -323h-138z" />
<glyph unicode="&#xac;" horiz-adv-x="1723" d="M257 766v101h1210v-507h-97v406h-1113z" />
<glyph unicode="&#xad;" horiz-adv-x="665" d="M95 488v134h474v-134h-474z" />
<glyph unicode="&#xae;" horiz-adv-x="1723" d="M122 730q0 146 57 282.5t164 244.5q102 104 234.5 159t283.5 55q153 0 288 -56t239 -162q103 -103 158 -237.5t55 -285.5t-54 -283.5t-159 -235.5q-108 -107 -244.5 -164t-282.5 -57q-149 0 -283 56t-239 163q-106 105 -161.5 239.5t-55.5 281.5zM203 730q0 -130 50 -249 t144 -214q95 -94 214 -144t250 -50t252.5 50.5t218.5 145.5q92 90 140 206.5t48 252.5t-48.5 256t-139.5 212q-95 94 -215.5 144t-255.5 50q-132 0 -249.5 -48.5t-210.5 -141.5q-96 -98 -147 -218.5t-51 -251.5zM571 316v853h312q180 0 266 -58t86 -178q0 -90 -54.5 -150.5 t-146.5 -73.5l190 -393h-146l-180 375h-199v-375h-128zM699 776h159q136 0 190.5 33.5t54.5 114.5q0 84 -57.5 121t-187.5 37h-159v-306z" />
<glyph unicode="&#xaf;" horiz-adv-x="1034" d="M259 1359v118h517v-118h-517z" />
<glyph unicode="&#xb0;" horiz-adv-x="680" d="M60 1186q0 117 82 199t199 82t198 -82.5t81 -198.5t-82 -199t-199 -83q-118 0 -198.5 82t-80.5 200zM130 1186q0 -88 62 -148.5t149 -60.5q88 0 148.5 60.5t60.5 148.5q0 87 -61 148.5t-148 61.5q-86 0 -148.5 -61.5t-62.5 -148.5z" />
<glyph unicode="&#xb1;" horiz-adv-x="1723" d="M257 52v100h1210v-100h-1210zM257 730v99h556v352h99v-352h555v-99h-555v-351h-99v351h-556z" />
<glyph unicode="&#xb2;" horiz-adv-x="771" d="M89 588v85l343 298q98 81 133 134t35 109q0 84 -59.5 139.5t-151.5 55.5q-94 0 -150.5 -57t-56.5 -152v-25h-93v13q0 133 86.5 217.5t221.5 84.5q123 0 209.5 -81.5t86.5 -200.5q0 -70 -36.5 -132.5t-114.5 -128.5l-327 -274h476v-85h-602z" />
<glyph unicode="&#xb3;" horiz-adv-x="771" d="M73 856h97v-8q0 -87 59.5 -145t147.5 -58q95 0 157 58t62 147q0 100 -65.5 152t-191.5 52h-45v73q8 -1 16.5 -1.5t24.5 -0.5q95 0 143.5 36.5t48.5 108.5q0 61 -41 101t-103 40q-72 0 -112 -39t-42 -111h-89q6 106 72.5 166.5t174.5 60.5q100 0 170 -65t70 -153 q0 -53 -22.5 -92t-73.5 -71q81 -39 121.5 -101.5t40.5 -147.5q0 -122 -88.5 -204.5t-221.5 -82.5q-144 0 -226 75.5t-84 209.5z" />
<glyph unicode="&#xb4;" horiz-adv-x="1034" d="M391 1259l211 354h153l-271 -354h-93z" />
<glyph unicode="&#xb5;" horiz-adv-x="1121" d="M-112 -430l319 1506h140l-126 -598q-8 -40 -12 -74t-4 -67q0 -118 58.5 -182t168.5 -64q127 0 217.5 108.5t134.5 313.5l122 563h140l-165 -778q-12 -56 -17.5 -86t-5.5 -48q0 -34 17.5 -50.5t51.5 -16.5q7 0 16.5 0.5t20.5 1.5l-21 -111q-19 -5 -41 -8t-46 -3 q-70 0 -104 36t-34 111v14q-42 -77 -121 -120t-181 -43q-93 0 -162.5 40.5t-109.5 116.5l-115 -562h-141z" />
<glyph unicode="&#xb6;" horiz-adv-x="1034" d="M85 1141q0 159 108.5 256t288.5 97h467v-71h-128v-1423h-83v1423h-188v-1423h-84v790q-176 8 -278.5 103.5t-102.5 247.5z" />
<glyph unicode="&#xb7;" horiz-adv-x="583" d="M199 736q0 40 27.5 67.5t65.5 27.5t66.5 -28t28.5 -67q0 -38 -28 -65.5t-67 -27.5q-40 0 -66.5 27.5t-26.5 65.5z" />
<glyph unicode="&#xb8;" horiz-adv-x="1034" d="M275 -345q93 -21 147 -28.5t93 -7.5q65 0 97.5 23t32.5 68q0 56 -34.5 81t-109.5 25q-19 0 -28.5 -0.5t-19.5 -1.5v186h64v-112h20q108 0 165.5 -44.5t57.5 -129.5t-60 -131.5t-171 -46.5q-57 0 -117.5 9.5t-136.5 30.5v79z" />
<glyph unicode="&#xb9;" horiz-adv-x="771" d="M180 1394v77h270v-883h-101v806h-169z" />
<glyph unicode="&#xba;" horiz-adv-x="941" d="M41 1082q0 170 125.5 292t297.5 122q181 0 308.5 -119.5t127.5 -284.5q0 -175 -125 -297t-303 -122q-182 0 -306.5 120t-124.5 289zM154 1082q0 -135 90.5 -224.5t227.5 -89.5q134 0 225 90t91 226q0 137 -92 226.5t-232 89.5q-129 0 -219.5 -91.5t-90.5 -226.5z" />
<glyph unicode="&#xbb;" horiz-adv-x="943" d="M134 231l251 323l-251 325h139l248 -325l-248 -323h-139zM442 231l249 323l-249 325h137l250 -325l-250 -323h-137z" />
<glyph unicode="&#xbc;" horiz-adv-x="1818" d="M172 1400v71h258v-824h-97v753h-161zM391 -29l914 1529h120l-912 -1529h-122zM1137 160v69l420 594h104v-594h101v-69h-101v-160h-89v160h-435zM1233 229h342l4 499z" />
<glyph unicode="&#xbd;" horiz-adv-x="1818" d="M172 1400v71h258v-824h-97v753h-161zM391 -29l914 1529h120l-912 -1529h-122zM1167 0v81l329 275q97 82 127.5 130t30.5 100q0 77 -56.5 129.5t-143.5 52.5q-90 0 -144.5 -53.5t-54.5 -143.5v-23h-88v13q0 125 82 203t211 78q118 0 200.5 -76t82.5 -187q0 -64 -34 -122.5 t-110 -121.5l-312 -254h454v-81h-574z" />
<glyph unicode="&#xbe;" horiz-adv-x="1818" d="M69 898h93v-6q0 -82 57 -136.5t141 -54.5q90 0 149.5 53.5t59.5 137.5q0 94 -63 143t-184 49h-43l1 68q6 -1 15 -1.5t25 -0.5q92 0 138.5 34t46.5 101q0 57 -40 94.5t-99 37.5q-68 0 -107.5 -37t-39.5 -101h-85q6 96 70 152.5t167 56.5q95 0 161 -60t66 -143 q0 -50 -21 -86t-68 -68q76 -35 113.5 -92.5t37.5 -138.5q0 -113 -84.5 -191t-211.5 -78q-136 0 -214 71t-81 196zM391 -29l914 1529h120l-912 -1529h-122zM1137 160v69l420 594h104v-594h101v-69h-101v-160h-89v160h-435zM1233 229h342l4 499z" />
<glyph unicode="&#xbf;" horiz-adv-x="957" d="M45 403q0 190 169 341q15 14 24 22q83 76 117.5 145.5t35.5 157.5l144 1q0 -95 -38.5 -185t-115.5 -173q-18 -20 -55 -54q-127 -120 -127 -255q0 -131 71 -207t196 -76q130 0 203 85t79 243h150q-3 -215 -124.5 -346t-315.5 -131q-184 0 -298.5 120t-114.5 312zM391 1202 v269h144v-269h-144z" />
<glyph unicode="&#xc0;" horiz-adv-x="1235" d="M-52 0l571 1471h174l568 -1471h-154l-176 462h-654l-176 -462h-153zM327 594h554l-279 738zM366 1967h153l211 -354h-93z" />
<glyph unicode="&#xc1;" horiz-adv-x="1235" d="M-52 0l571 1471h174l568 -1471h-154l-176 462h-654l-176 -462h-153zM327 594h554l-279 738zM478 1613l211 354h153l-271 -354h-93z" />
<glyph unicode="&#xc2;" horiz-adv-x="1235" d="M-52 0l571 1471h174l568 -1471h-154l-176 462h-654l-176 -462h-153zM327 594h554l-279 738zM325 1613l202 354h154l202 -354h-93l-186 267l-186 -267h-93z" />
<glyph unicode="&#xc3;" horiz-adv-x="1235" d="M-52 0l571 1471h174l568 -1471h-154l-176 462h-654l-176 -462h-153zM327 594h554l-279 738zM312 1657q21 91 72 139t125 48q16 0 29.5 -2.5t24.5 -6.5l97 -31q13 -5 28 -8t28 -3q34 0 57 18t40 57h83q-26 -92 -74.5 -139t-118.5 -47q-14 0 -30 2.5t-36 7.5l-98 32 q-15 4 -27.5 6t-25.5 2q-30 0 -54 -19.5t-39 -55.5h-81z" />
<glyph unicode="&#xc4;" horiz-adv-x="1235" d="M-52 0l571 1471h174l568 -1471h-154l-176 462h-654l-176 -462h-153zM327 594h554l-279 738zM346 1680v166h142v-166h-142zM718 1680v166h145v-166h-145z" />
<glyph unicode="&#xc5;" horiz-adv-x="1235" d="M-52 0l571 1471h174l568 -1471h-154l-176 462h-654l-176 -462h-153zM327 594h554l-279 738zM375 1760q0 96 67.5 164t163.5 68t163.5 -68t67.5 -164t-67.5 -164t-163.5 -68q-97 0 -164 67.5t-67 164.5zM466 1760q0 -59 41 -100.5t101 -41.5q61 0 102.5 41.5t41.5 100.5 q0 60 -42.5 103.5t-101.5 43.5t-100.5 -43t-41.5 -104z" />
<glyph unicode="&#xc6;" horiz-adv-x="1828" d="M-136 0l1011 1471h832v-145h-619v-515h619v-145h-619v-524h619v-142h-764v488h-572l-334 -488h-173zM470 633h477l6 693h-16z" />
<glyph unicode="&#xc7;" horiz-adv-x="1555" d="M62 744q0 155 58.5 293.5t171.5 249.5q105 105 236 159t283 54q219 0 394.5 -107t277.5 -303h-174q-99 137 -221 201.5t-279 64.5q-245 0 -419.5 -181.5t-174.5 -432.5q0 -266 173.5 -449t420.5 -183q153 0 276 63.5t214 190.5h172q-101 -188 -271 -290.5t-381 -102.5 q-324 0 -540.5 221t-216.5 552zM567 -345q93 -21 147 -28.5t93 -7.5q65 0 97.5 23t32.5 68q0 56 -34.5 81t-109.5 25q-19 0 -28.5 -0.5t-19.5 -1.5v186h64v-112h20q108 0 165.5 -44.5t57.5 -129.5t-60 -131.5t-171 -46.5q-57 0 -117.5 9.5t-136.5 30.5v79z" />
<glyph unicode="&#xc8;" horiz-adv-x="1038" d="M136 0v1471h764v-145h-618v-515h618v-145h-618v-524h618v-142h-764zM295 1967h153l211 -354h-93z" />
<glyph unicode="&#xc9;" horiz-adv-x="1038" d="M136 0v1471h764v-145h-618v-515h618v-145h-618v-524h618v-142h-764zM407 1613l211 354h153l-271 -354h-93z" />
<glyph unicode="&#xca;" horiz-adv-x="1038" d="M136 0v1471h764v-145h-618v-515h618v-145h-618v-524h618v-142h-764zM254 1613l202 354h154l202 -354h-93l-186 267l-186 -267h-93z" />
<glyph unicode="&#xcb;" horiz-adv-x="1038" d="M136 0v1471h764v-145h-618v-515h618v-145h-618v-524h618v-142h-764zM275 1680v166h142v-166h-142zM647 1680v166h145v-166h-145z" />
<glyph unicode="&#xcc;" horiz-adv-x="416" d="M134 0v1471h145v-1471h-145zM-29 1967h153l211 -354h-93z" />
<glyph unicode="&#xcd;" horiz-adv-x="416" d="M134 0v1471h145v-1471h-145zM83 1613l211 354h153l-271 -354h-93z" />
<glyph unicode="&#xce;" horiz-adv-x="416" d="M134 0v1471h145v-1471h-145zM-70 1613l202 354h154l202 -354h-93l-186 267l-186 -267h-93z" />
<glyph unicode="&#xcf;" horiz-adv-x="416" d="M134 0v1471h145v-1471h-145zM-49 1680v166h142v-166h-142zM323 1680v166h145v-166h-145z" />
<glyph unicode="&#xd0;" horiz-adv-x="1393" d="M-4 675v128h156v668h442q331 0 534.5 -205.5t203.5 -535.5q0 -186 -76.5 -342t-221.5 -262q-92 -68 -196 -97t-305 -29h-381v675h-156zM294 138h339q248 0 396 165t148 439q0 271 -153 429.5t-418 158.5h-312v-527h361v-128h-361v-537z" />
<glyph unicode="&#xd1;" horiz-adv-x="1379" d="M132 0v1471h174l807 -1295l-17 1295h143v-1471h-173l-807 1297l16 -1297h-143zM399 1657q21 91 72 139t125 48q16 0 29.5 -2.5t24.5 -6.5l97 -31q13 -5 28 -8t28 -3q34 0 57 18t40 57h83q-26 -92 -74.5 -139t-118.5 -47q-14 0 -30 2.5t-36 7.5l-98 32q-15 4 -27.5 6 t-25.5 2q-30 0 -54 -19.5t-39 -55.5h-81z" />
<glyph unicode="&#xd2;" horiz-adv-x="1628" d="M62 744q0 154 59 293.5t171 249.5q108 106 238 159.5t281 53.5q155 0 286.5 -54t240.5 -161q112 -110 168.5 -246.5t56.5 -294.5q0 -156 -48 -287t-145 -238q-113 -123 -254 -185.5t-307 -62.5q-317 0 -532 222.5t-215 550.5zM213 742q0 -268 175 -450t431 -182 q251 0 423.5 184t172.5 452q0 251 -178 432t-428 181q-102 0 -196.5 -34.5t-174.5 -102.5q-105 -89 -165 -217t-60 -263zM577 1967h153l211 -354h-93z" />
<glyph unicode="&#xd3;" horiz-adv-x="1628" d="M62 744q0 154 59 293.5t171 249.5q108 106 238 159.5t281 53.5q155 0 286.5 -54t240.5 -161q112 -110 168.5 -246.5t56.5 -294.5q0 -156 -48 -287t-145 -238q-113 -123 -254 -185.5t-307 -62.5q-317 0 -532 222.5t-215 550.5zM213 742q0 -268 175 -450t431 -182 q251 0 423.5 184t172.5 452q0 251 -178 432t-428 181q-102 0 -196.5 -34.5t-174.5 -102.5q-105 -89 -165 -217t-60 -263zM689 1613l211 354h153l-271 -354h-93z" />
<glyph unicode="&#xd4;" horiz-adv-x="1628" d="M62 744q0 154 59 293.5t171 249.5q108 106 238 159.5t281 53.5q155 0 286.5 -54t240.5 -161q112 -110 168.5 -246.5t56.5 -294.5q0 -156 -48 -287t-145 -238q-113 -123 -254 -185.5t-307 -62.5q-317 0 -532 222.5t-215 550.5zM213 742q0 -268 175 -450t431 -182 q251 0 423.5 184t172.5 452q0 251 -178 432t-428 181q-102 0 -196.5 -34.5t-174.5 -102.5q-105 -89 -165 -217t-60 -263zM536 1613l202 354h154l202 -354h-93l-186 267l-186 -267h-93z" />
<glyph unicode="&#xd5;" horiz-adv-x="1628" d="M62 744q0 154 59 293.5t171 249.5q108 106 238 159.5t281 53.5q155 0 286.5 -54t240.5 -161q112 -110 168.5 -246.5t56.5 -294.5q0 -156 -48 -287t-145 -238q-113 -123 -254 -185.5t-307 -62.5q-317 0 -532 222.5t-215 550.5zM213 742q0 -268 175 -450t431 -182 q251 0 423.5 184t172.5 452q0 251 -178 432t-428 181q-102 0 -196.5 -34.5t-174.5 -102.5q-105 -89 -165 -217t-60 -263zM523 1657q21 91 72 139t125 48q16 0 29.5 -2.5t24.5 -6.5l97 -31q13 -5 28 -8t28 -3q34 0 57 18t40 57h83q-26 -92 -74.5 -139t-118.5 -47 q-14 0 -30 2.5t-36 7.5l-98 32q-15 4 -27.5 6t-25.5 2q-30 0 -54 -19.5t-39 -55.5h-81z" />
<glyph unicode="&#xd6;" horiz-adv-x="1628" d="M62 744q0 154 59 293.5t171 249.5q108 106 238 159.5t281 53.5q155 0 286.5 -54t240.5 -161q112 -110 168.5 -246.5t56.5 -294.5q0 -156 -48 -287t-145 -238q-113 -123 -254 -185.5t-307 -62.5q-317 0 -532 222.5t-215 550.5zM213 742q0 -268 175 -450t431 -182 q251 0 423.5 184t172.5 452q0 251 -178 432t-428 181q-102 0 -196.5 -34.5t-174.5 -102.5q-105 -89 -165 -217t-60 -263zM557 1680v166h142v-166h-142zM929 1680v166h145v-166h-145z" />
<glyph unicode="&#xd7;" horiz-adv-x="1723" d="M308 130l486 486l-486 487l71 70l486 -486l485 486l71 -70l-486 -487l486 -486l-71 -70l-485 486l-486 -486z" />
<glyph unicode="&#xd8;" horiz-adv-x="1628" d="M64 746q0 155 58.5 292.5t171.5 248.5q108 106 240 159.5t287 53.5q123 0 228.5 -35t203.5 -109l174 210l97 -76l-180 -215q109 -105 164 -238t55 -293q0 -330 -216 -550.5t-536 -220.5q-124 0 -224.5 33t-205.5 108l-209 -252l-95 78l209 250q-111 120 -166.5 259.5 t-55.5 296.5zM217 742q0 -127 42.5 -240.5t121.5 -195.5l777 937q-81 61 -160 88.5t-173 27.5q-256 0 -432 -181t-176 -436zM474 225q86 -58 167.5 -85.5t169.5 -27.5q256 0 430 183t174 447q0 121 -41.5 224t-124.5 192z" />
<glyph unicode="&#xd9;" d="M114 535v936h145v-931q0 -108 8.5 -161.5t28.5 -94.5q39 -84 115.5 -131.5t172.5 -47.5q166 0 246 113.5t80 352.5v900h142v-936q0 -286 -113.5 -426t-344.5 -140q-248 0 -364 137t-116 429zM348 1967h153l211 -354h-93z" />
<glyph unicode="&#xda;" d="M114 535v936h145v-931q0 -108 8.5 -161.5t28.5 -94.5q39 -84 115.5 -131.5t172.5 -47.5q166 0 246 113.5t80 352.5v900h142v-936q0 -286 -113.5 -426t-344.5 -140q-248 0 -364 137t-116 429zM460 1613l211 354h153l-271 -354h-93z" />
<glyph unicode="&#xdb;" d="M114 535v936h145v-931q0 -108 8.5 -161.5t28.5 -94.5q39 -84 115.5 -131.5t172.5 -47.5q166 0 246 113.5t80 352.5v900h142v-936q0 -286 -113.5 -426t-344.5 -140q-248 0 -364 137t-116 429zM307 1613l202 354h154l202 -354h-93l-186 267l-186 -267h-93z" />
<glyph unicode="&#xdc;" d="M114 535v936h145v-931q0 -108 8.5 -161.5t28.5 -94.5q39 -84 115.5 -131.5t172.5 -47.5q166 0 246 113.5t80 352.5v900h142v-936q0 -286 -113.5 -426t-344.5 -140q-248 0 -364 137t-116 429zM328 1680v166h142v-166h-142zM700 1680v166h145v-166h-145z" />
<glyph unicode="&#xdd;" horiz-adv-x="990" d="M-49 1471h165l376 -764l381 764h161l-471 -931v-540h-143v542zM371 1613l211 354h153l-271 -354h-93z" />
<glyph unicode="&#xde;" horiz-adv-x="1044" d="M120 0v1471h145v-285h195q125 0 195.5 -13t120.5 -42q95 -56 151 -153t56 -208q0 -200 -140.5 -318.5t-384.5 -118.5h-193v-333h-145zM265 482h213q171 0 258 70.5t87 211.5q0 70 -28 130t-79 97q-37 26 -85.5 37.5t-164.5 11.5h-201v-558z" />
<glyph unicode="&#xdf;" horiz-adv-x="1212" d="M116 0v975q0 259 102.5 384.5t314.5 125.5q188 0 306 -114t118 -291q0 -102 -39.5 -172t-110.5 -91q165 -38 254 -141.5t89 -257.5q0 -191 -131 -319t-328 -128q-160 0 -265.5 78t-166.5 243v-292h-143zM259 362h140q40 -130 114 -194.5t182 -64.5q123 0 213.5 86.5 t90.5 203.5q0 148 -101 224t-298 76h-91v116h6q135 0 213.5 72.5t78.5 198.5q0 118 -78.5 193t-199.5 75q-125 0 -197.5 -76t-72.5 -208v-73v-629z" />
<glyph unicode="&#xe0;" horiz-adv-x="1302" d="M58 550q0 250 166 417.5t415 167.5q129 0 236 -52t177 -150v178h140v-1111h-140v176q-66 -96 -179.5 -150.5t-245.5 -54.5q-244 0 -406.5 167t-162.5 412zM205 544q0 -185 125.5 -313t300.5 -128q170 0 295.5 135t125.5 325q0 176 -126 308t-291 132q-178 0 -304 -132 t-126 -327zM403 1613h153l211 -354h-93z" />
<glyph unicode="&#xe1;" horiz-adv-x="1302" d="M58 550q0 250 166 417.5t415 167.5q129 0 236 -52t177 -150v178h140v-1111h-140v176q-66 -96 -179.5 -150.5t-245.5 -54.5q-244 0 -406.5 167t-162.5 412zM205 544q0 -185 125.5 -313t300.5 -128q170 0 295.5 135t125.5 325q0 176 -126 308t-291 132q-178 0 -304 -132 t-126 -327zM515 1259l211 354h153l-271 -354h-93z" />
<glyph unicode="&#xe2;" horiz-adv-x="1302" d="M58 550q0 250 166 417.5t415 167.5q129 0 236 -52t177 -150v178h140v-1111h-140v176q-66 -96 -179.5 -150.5t-245.5 -54.5q-244 0 -406.5 167t-162.5 412zM205 544q0 -185 125.5 -313t300.5 -128q170 0 295.5 135t125.5 325q0 176 -126 308t-291 132q-178 0 -304 -132 t-126 -327zM362 1259l202 354h154l202 -354h-93l-186 267l-186 -267h-93z" />
<glyph unicode="&#xe3;" horiz-adv-x="1302" d="M58 550q0 250 166 417.5t415 167.5q129 0 236 -52t177 -150v178h140v-1111h-140v176q-66 -96 -179.5 -150.5t-245.5 -54.5q-244 0 -406.5 167t-162.5 412zM205 544q0 -185 125.5 -313t300.5 -128q170 0 295.5 135t125.5 325q0 176 -126 308t-291 132q-178 0 -304 -132 t-126 -327zM349 1303q21 91 72 139t125 48q16 0 29.5 -2.5t24.5 -6.5l97 -31q13 -5 28 -8t28 -3q34 0 57 18t40 57h83q-26 -92 -74.5 -139t-118.5 -47q-14 0 -30 2.5t-36 7.5l-98 32q-15 4 -27.5 6t-25.5 2q-30 0 -54 -19.5t-39 -55.5h-81z" />
<glyph unicode="&#xe4;" horiz-adv-x="1302" d="M58 550q0 250 166 417.5t415 167.5q129 0 236 -52t177 -150v178h140v-1111h-140v176q-66 -96 -179.5 -150.5t-245.5 -54.5q-244 0 -406.5 167t-162.5 412zM205 544q0 -185 125.5 -313t300.5 -128q170 0 295.5 135t125.5 325q0 176 -126 308t-291 132q-178 0 -304 -132 t-126 -327zM383 1326v166h142v-166h-142zM755 1326v166h145v-166h-145z" />
<glyph unicode="&#xe5;" horiz-adv-x="1302" d="M58 550q0 250 166 417.5t415 167.5q129 0 236 -52t177 -150v178h140v-1111h-140v176q-66 -96 -179.5 -150.5t-245.5 -54.5q-244 0 -406.5 167t-162.5 412zM205 544q0 -185 125.5 -313t300.5 -128q170 0 295.5 135t125.5 325q0 176 -126 308t-291 132q-178 0 -304 -132 t-126 -327zM420 1425q0 96 68 163.5t163 67.5q97 0 166 -67.5t69 -163.5t-69 -163.5t-166 -67.5t-164 67t-67 164zM511 1427q0 -59 42 -101.5t100 -42.5q60 0 103 42.5t43 101.5t-43 102t-103 43q-58 0 -100 -42t-42 -103z" />
<glyph unicode="&#xe6;" horiz-adv-x="2250" d="M58 550q0 250 166 417.5t415 167.5q115 0 214.5 -44.5t194.5 -139.5v160h144v-164q92 96 200.5 142t239.5 46q248 0 406.5 -171t158.5 -443v-14h-997q13 -179 132 -291.5t292 -112.5q124 0 223.5 64t154.5 180h159q-75 -182 -213 -280t-320 -98q-137 0 -243.5 45.5 t-192.5 141.5v-156h-144v156q-88 -96 -191 -141.5t-230 -45.5q-244 0 -406.5 168t-162.5 413zM205 544q0 -185 125.5 -313t300.5 -128q170 0 295.5 135t125.5 325q0 177 -126.5 310.5t-290.5 133.5q-177 0 -303.5 -134t-126.5 -329zM1204 631h839q-36 179 -145.5 277.5 t-271.5 98.5q-166 0 -279 -100.5t-143 -275.5z" />
<glyph unicode="&#xe7;" horiz-adv-x="1253" d="M58 552q0 247 168 418t409 171q181 0 319 -97.5t206 -273.5h-157q-66 121 -160.5 179t-224.5 58q-172 0 -291.5 -130.5t-119.5 -322.5q0 -191 120 -320t297 -129q129 0 228 63.5t151 178.5h157q-64 -180 -202.5 -279t-326.5 -99q-241 0 -407 171t-166 412zM385 -345 q93 -21 147 -28.5t93 -7.5q65 0 97.5 23t32.5 68q0 56 -34.5 81t-109.5 25q-19 0 -28.5 -0.5t-19.5 -1.5v186h64v-112h20q108 0 165.5 -44.5t57.5 -129.5t-60 -131.5t-171 -46.5q-57 0 -117.5 9.5t-136.5 30.5v79z" />
<glyph unicode="&#xe8;" horiz-adv-x="1253" d="M54 557q0 253 164 418.5t419 165.5q251 0 409 -172t158 -448v-10h-1003q13 -182 131 -294t295 -112q125 0 225 65t155 181h162q-77 -184 -216 -283t-322 -99q-242 0 -409.5 172.5t-167.5 415.5zM205 631h841q-40 187 -148 281.5t-282 94.5q-162 0 -274 -101.5 t-137 -274.5zM401 1613h153l211 -354h-93z" />
<glyph unicode="&#xe9;" horiz-adv-x="1253" d="M54 557q0 253 164 418.5t419 165.5q251 0 409 -172t158 -448v-10h-1003q13 -182 131 -294t295 -112q125 0 225 65t155 181h162q-77 -184 -216 -283t-322 -99q-242 0 -409.5 172.5t-167.5 415.5zM205 631h841q-40 187 -148 281.5t-282 94.5q-162 0 -274 -101.5 t-137 -274.5zM513 1259l211 354h153l-271 -354h-93z" />
<glyph unicode="&#xea;" horiz-adv-x="1253" d="M54 557q0 253 164 418.5t419 165.5q251 0 409 -172t158 -448v-10h-1003q13 -182 131 -294t295 -112q125 0 225 65t155 181h162q-77 -184 -216 -283t-322 -99q-242 0 -409.5 172.5t-167.5 415.5zM205 631h841q-40 187 -148 281.5t-282 94.5q-162 0 -274 -101.5 t-137 -274.5zM360 1259l202 354h154l202 -354h-93l-186 267l-186 -267h-93z" />
<glyph unicode="&#xeb;" horiz-adv-x="1253" d="M54 557q0 253 164 418.5t419 165.5q251 0 409 -172t158 -448v-10h-1003q13 -182 131 -294t295 -112q125 0 225 65t155 181h162q-77 -184 -216 -283t-322 -99q-242 0 -409.5 172.5t-167.5 415.5zM205 631h841q-40 187 -148 281.5t-282 94.5q-162 0 -274 -101.5 t-137 -274.5zM381 1326v166h142v-166h-142zM753 1326v166h145v-166h-145z" />
<glyph unicode="&#xec;" horiz-adv-x="374" d="M116 0v1111h143v-1111h-143zM-50 1613h153l211 -354h-93z" />
<glyph unicode="&#xed;" horiz-adv-x="374" d="M116 0v1111h143v-1111h-143zM62 1259l211 354h153l-271 -354h-93z" />
<glyph unicode="&#xee;" horiz-adv-x="374" d="M116 0v1111h143v-1111h-143zM-91 1259l202 354h154l202 -354h-93l-186 267l-186 -267h-93z" />
<glyph unicode="&#xef;" horiz-adv-x="374" d="M116 0v1111h143v-1111h-143zM-70 1326v166h142v-166h-142zM302 1326v166h145v-166h-145z" />
<glyph unicode="&#xf0;" horiz-adv-x="1253" d="M54 515q0 224 167.5 386.5t396.5 162.5q101 0 190 -33t185 -107q-35 93 -92.5 171.5t-136.5 139.5l-272 -100l-36 83l225 85q-35 21 -75 43t-87 44l44 93q77 -35 137 -66.5t111 -66.5l290 104l34 -80l-239 -89q147 -138 225.5 -314t78.5 -373q0 -282 -159.5 -454.5 t-413.5 -172.5q-240 0 -406.5 160.5t-166.5 383.5zM205 523q0 -179 121 -298.5t303 -119.5q181 0 301 122t120 308q0 175 -123 292.5t-309 117.5q-169 0 -291 -122.5t-122 -299.5z" />
<glyph unicode="&#xf1;" horiz-adv-x="1154" d="M114 0v1111h138v-126q66 75 152.5 111.5t197.5 36.5q122 0 217.5 -45.5t151.5 -130.5q38 -59 54.5 -139.5t16.5 -236.5v-581h-140v622q0 197 -75.5 286t-240.5 89q-97 0 -170.5 -39t-115.5 -112q-26 -45 -37 -103t-11 -203v-540h-138zM298 1303q21 91 72 139t125 48 q16 0 29.5 -2.5t24.5 -6.5l97 -31q13 -5 28 -8t28 -3q34 0 57 18t40 57h83q-26 -92 -74.5 -139t-118.5 -47q-14 0 -30 2.5t-36 7.5l-98 32q-15 4 -27.5 6t-25.5 2q-30 0 -54 -19.5t-39 -55.5h-81z" />
<glyph unicode="&#xf2;" horiz-adv-x="1253" d="M54 554q0 245 167.5 418.5t396.5 173.5q242 0 412 -170.5t170 -406.5q0 -249 -166.5 -424.5t-404.5 -175.5q-241 0 -408 172t-167 413zM203 557q0 -192 122 -322t304 -130q179 0 300 130t121 324q0 196 -122.5 323t-311.5 127q-170 0 -291.5 -130.5t-121.5 -321.5z M399 1613h153l211 -354h-93z" />
<glyph unicode="&#xf3;" horiz-adv-x="1253" d="M54 554q0 245 167.5 418.5t396.5 173.5q242 0 412 -170.5t170 -406.5q0 -249 -166.5 -424.5t-404.5 -175.5q-241 0 -408 172t-167 413zM203 557q0 -192 122 -322t304 -130q179 0 300 130t121 324q0 196 -122.5 323t-311.5 127q-170 0 -291.5 -130.5t-121.5 -321.5z M511 1259l211 354h153l-271 -354h-93z" />
<glyph unicode="&#xf4;" horiz-adv-x="1253" d="M54 554q0 245 167.5 418.5t396.5 173.5q242 0 412 -170.5t170 -406.5q0 -249 -166.5 -424.5t-404.5 -175.5q-241 0 -408 172t-167 413zM203 557q0 -192 122 -322t304 -130q179 0 300 130t121 324q0 196 -122.5 323t-311.5 127q-170 0 -291.5 -130.5t-121.5 -321.5z M358 1259l202 354h154l202 -354h-93l-186 267l-186 -267h-93z" />
<glyph unicode="&#xf5;" horiz-adv-x="1253" d="M54 554q0 245 167.5 418.5t396.5 173.5q242 0 412 -170.5t170 -406.5q0 -249 -166.5 -424.5t-404.5 -175.5q-241 0 -408 172t-167 413zM203 557q0 -192 122 -322t304 -130q179 0 300 130t121 324q0 196 -122.5 323t-311.5 127q-170 0 -291.5 -130.5t-121.5 -321.5z M345 1303q21 91 72 139t125 48q16 0 29.5 -2.5t24.5 -6.5l97 -31q13 -5 28 -8t28 -3q34 0 57 18t40 57h83q-26 -92 -74.5 -139t-118.5 -47q-14 0 -30 2.5t-36 7.5l-98 32q-15 4 -27.5 6t-25.5 2q-30 0 -54 -19.5t-39 -55.5h-81z" />
<glyph unicode="&#xf6;" horiz-adv-x="1253" d="M54 554q0 245 167.5 418.5t396.5 173.5q242 0 412 -170.5t170 -406.5q0 -249 -166.5 -424.5t-404.5 -175.5q-241 0 -408 172t-167 413zM203 557q0 -192 122 -322t304 -130q179 0 300 130t121 324q0 196 -122.5 323t-311.5 127q-170 0 -291.5 -130.5t-121.5 -321.5z M379 1326v166h142v-166h-142zM751 1326v166h145v-166h-145z" />
<glyph unicode="&#xf7;" horiz-adv-x="1723" d="M257 567v99h1210v-99h-1210zM755 261q0 44 31.5 76t76.5 32t76.5 -31.5t31.5 -76.5t-31.5 -76t-76.5 -31q-46 0 -77 31t-31 76zM755 973q0 44 32 76.5t76 32.5t76 -32.5t32 -76.5q0 -46 -31.5 -77t-76.5 -31q-46 0 -77 30.5t-31 77.5z" />
<glyph unicode="&#xf8;" horiz-adv-x="1253" d="M31 -58l178 214q-74 77 -114.5 182t-40.5 216q0 247 167 418.5t406 171.5q90 0 172 -26t150 -76l170 203l93 -72l-174 -209q78 -79 120 -183.5t42 -219.5q0 -245 -168.5 -418.5t-415.5 -173.5q-88 0 -165 25.5t-155 80.5l-180 -213zM203 557q0 -85 23.5 -158t71.5 -136 l563 672q-42 36 -102.5 55t-129.5 19q-182 0 -304 -128.5t-122 -323.5zM385 182q53 -40 108 -58.5t121 -18.5q191 0 313.5 128t122.5 328q0 82 -24 155t-75 142z" />
<glyph unicode="&#xf9;" horiz-adv-x="1154" d="M110 531v580h140v-590q0 -227 74 -321.5t243 -94.5q96 0 168.5 39t116.5 113q26 43 37 102t11 206v546h142v-1111h-142v120q-65 -79 -144.5 -114t-192.5 -35q-241 0 -347 129.5t-106 430.5zM333 1613h153l211 -354h-93z" />
<glyph unicode="&#xfa;" horiz-adv-x="1154" d="M110 531v580h140v-590q0 -227 74 -321.5t243 -94.5q96 0 168.5 39t116.5 113q26 43 37 102t11 206v546h142v-1111h-142v120q-65 -79 -144.5 -114t-192.5 -35q-241 0 -347 129.5t-106 430.5zM445 1259l211 354h153l-271 -354h-93z" />
<glyph unicode="&#xfb;" horiz-adv-x="1154" d="M110 531v580h140v-590q0 -227 74 -321.5t243 -94.5q96 0 168.5 39t116.5 113q26 43 37 102t11 206v546h142v-1111h-142v120q-65 -79 -144.5 -114t-192.5 -35q-241 0 -347 129.5t-106 430.5zM292 1259l202 354h154l202 -354h-93l-186 267l-186 -267h-93z" />
<glyph unicode="&#xfc;" horiz-adv-x="1154" d="M110 531v580h140v-590q0 -227 74 -321.5t243 -94.5q96 0 168.5 39t116.5 113q26 43 37 102t11 206v546h142v-1111h-142v120q-65 -79 -144.5 -114t-192.5 -35q-241 0 -347 129.5t-106 430.5zM313 1326v166h142v-166h-142zM685 1326v166h145v-166h-145z" />
<glyph unicode="&#xfd;" horiz-adv-x="953" d="M-33 1111h163l344 -902l359 902h166l-600 -1471h-153l149 362zM352 1259l211 354h153l-271 -354h-93z" />
<glyph unicode="&#xfe;" horiz-adv-x="1302" d="M110 -360v1831h145l-5 -542q61 94 173.5 150t240.5 56q248 0 414.5 -165.5t166.5 -404.5q0 -257 -161.5 -425.5t-408.5 -168.5q-136 0 -244.5 53t-175.5 152v-243v-293h-145zM250 557q0 -185 126.5 -319.5t294.5 -134.5q174 0 299.5 128t125.5 313q0 196 -125.5 327.5 t-304.5 131.5q-167 0 -291.5 -132.5t-124.5 -313.5z" />
<glyph unicode="&#xff;" horiz-adv-x="953" d="M-33 1111h163l344 -902l359 902h166l-600 -1471h-153l149 362zM220 1326v166h142v-166h-142zM592 1326v166h145v-166h-145z" />
<glyph unicode="&#x131;" horiz-adv-x="374" d="M116 0v1111h143v-1111h-143z" />
<glyph unicode="&#x152;" horiz-adv-x="2254" d="M62 744q0 154 59 293.5t171 249.5q108 106 238 159.5t281 53.5q186 0 337.5 -75t258.5 -219v265h762v-145h-618v-515h618v-145h-618v-524h618v-142h-762v263q-125 -150 -270.5 -221t-327.5 -71q-317 0 -532 222.5t-215 550.5zM213 742q0 -268 175 -450t431 -182 q251 0 423.5 184t172.5 452q0 251 -178 432t-428 181q-102 0 -196.5 -34.5t-174.5 -102.5q-105 -89 -165 -217t-60 -263z" />
<glyph unicode="&#x153;" horiz-adv-x="2250" d="M54 554q0 247 168.5 418.5t410.5 171.5q157 0 286 -79t206 -223q83 143 216 222.5t289 79.5q250 0 408.5 -175.5t158.5 -457.5v-4h-997q13 -178 132 -290t292 -112q125 0 224 63.5t154 178.5h159q-73 -182 -214 -280t-329 -98q-163 0 -286.5 76t-206.5 226 q-79 -151 -203.5 -226.5t-292.5 -75.5q-242 0 -408.5 171.5t-166.5 413.5zM203 557q0 -192 122 -322t304 -130q179 0 300 130t121 324q0 196 -122.5 323t-311.5 127q-170 0 -291.5 -130.5t-121.5 -321.5zM1204 631h839q-36 180 -146 279t-271 99q-167 0 -284 -104.5 t-138 -273.5z" />
<glyph unicode="&#x178;" horiz-adv-x="990" d="M-49 1471h165l376 -764l381 764h161l-471 -931v-540h-143v542zM239 1680v166h142v-166h-142zM611 1680v166h145v-166h-145z" />
<glyph unicode="&#x2c6;" horiz-adv-x="1034" d="M238 1259l202 354h154l202 -354h-93l-186 267l-186 -267h-93z" />
<glyph unicode="&#x2dc;" horiz-adv-x="1034" d="M225 1303q21 91 72 139t125 48q16 0 29.5 -2.5t24.5 -6.5l97 -31q13 -5 28 -8t28 -3q34 0 57 18t40 57h83q-26 -92 -74.5 -139t-118.5 -47q-14 0 -30 2.5t-36 7.5l-98 32q-15 4 -27.5 6t-25.5 2q-30 0 -54 -19.5t-39 -55.5h-81z" />
<glyph unicode="&#x2000;" horiz-adv-x="996" />
<glyph unicode="&#x2001;" horiz-adv-x="1992" />
<glyph unicode="&#x2002;" horiz-adv-x="996" />
<glyph unicode="&#x2003;" horiz-adv-x="1992" />
<glyph unicode="&#x2004;" horiz-adv-x="664" />
<glyph unicode="&#x2005;" horiz-adv-x="498" />
<glyph unicode="&#x2006;" horiz-adv-x="332" />
<glyph unicode="&#x2007;" horiz-adv-x="332" />
<glyph unicode="&#x2008;" horiz-adv-x="249" />
<glyph unicode="&#x2009;" horiz-adv-x="398" />
<glyph unicode="&#x200a;" horiz-adv-x="110" />
<glyph unicode="&#x2010;" horiz-adv-x="665" d="M95 488v134h474v-134h-474z" />
<glyph unicode="&#x2011;" horiz-adv-x="665" d="M95 488v134h474v-134h-474z" />
<glyph unicode="&#x2012;" horiz-adv-x="665" d="M95 488v134h474v-134h-474z" />
<glyph unicode="&#x2013;" horiz-adv-x="1034" d="M0 497v113h1034v-113h-1034z" />
<glyph unicode="&#x2014;" horiz-adv-x="2068" d="M0 497v113h2068v-113h-2068z" />
<glyph unicode="&#x2018;" horiz-adv-x="400" d="M79 1471h142l158 -433h-146z" />
<glyph unicode="&#x2019;" horiz-adv-x="400" d="M25 1038l155 433h145l-157 -433h-143z" />
<glyph unicode="&#x201a;" horiz-adv-x="400" d="M25 -164l155 433h145l-157 -433h-143z" />
<glyph unicode="&#x201c;" horiz-adv-x="698" d="M79 1471h142l158 -433h-146zM375 1471h144l156 -433h-144z" />
<glyph unicode="&#x201d;" horiz-adv-x="698" d="M25 1038l155 433h145l-157 -433h-143zM320 1038l158 433h142l-154 -433h-146z" />
<glyph unicode="&#x201e;" horiz-adv-x="698" d="M25 -164l155 433h145l-157 -433h-143zM320 -164l158 433h142l-154 -433h-146z" />
<glyph unicode="&#x2022;" horiz-adv-x="1220" d="M310 770q0 124 88 211t212 87q123 0 210.5 -87.5t87.5 -210.5q0 -124 -88.5 -212t-211.5 -88q-124 0 -211 87.5t-87 212.5z" />
<glyph unicode="&#x2026;" horiz-adv-x="2068" d="M273 0v269h145v-269h-145zM961 0v269h145v-269h-145zM1652 0v269h145v-269h-145z" />
<glyph unicode="&#x202f;" horiz-adv-x="398" />
<glyph unicode="&#x2039;" horiz-adv-x="637" d="M116 554l248 325h139l-251 -325l251 -323h-139z" />
<glyph unicode="&#x203a;" horiz-adv-x="637" d="M134 231l251 323l-251 325h139l248 -325l-248 -323h-139z" />
<glyph unicode="&#x205f;" horiz-adv-x="498" />
<glyph unicode="&#x2122;" horiz-adv-x="1723" d="M267 1411v58h434v-58h-174v-478h-83v478h-177zM829 933v536h118l168 -427l158 427h117v-536h-72v472l-179 -472h-49l-188 472v-472h-73z" />
<glyph unicode="&#xe000;" horiz-adv-x="1110" d="M0 1110h1110v-1110h-1110v1110z" />
<glyph unicode="&#xfb01;" horiz-adv-x="943" d="M685 0v1111h143v-1111h-143zM685 1241v230h143v-230h-143zM25 987v124h143v30q0 177 89 262t274 85h13v-129q-128 -2 -181 -51t-53 -167v-30h234v-124h-232v-987h-138v987h-149z" />
<glyph unicode="&#xfb02;" horiz-adv-x="943" d="M685 0v1471h143v-1471h-143zM25 987v124h143v30q0 177 89 262t274 85h13v-129q-128 -2 -181 -51t-53 -167v-30h234v-124h-232v-987h-138v987h-149z" />
<glyph unicode="&#xfb03;" horiz-adv-x="1511" d="M1253 0v1111h143v-1111h-143zM1253 1241v230h143v-230h-143zM594 987v124h143v30q0 177 89 262t274 85h13v-129q-128 -2 -181 -51t-53 -167v-30h234v-124h-232v-987h-138v987h-149zM25 987v124h143v30q0 177 89 262t274 85h13v-129q-128 -2 -181 -51t-53 -167v-30h234 v-124h-232v-987h-138v987h-149z" />
<glyph unicode="&#xfb04;" horiz-adv-x="1511" d="M1253 0v1471h143v-1471h-143zM594 987v124h143v30q0 177 89 262t274 85h13v-129q-128 -2 -181 -51t-53 -167v-30h234v-124h-232v-987h-138v987h-149zM25 987v124h143v30q0 177 89 262t274 85h13v-129q-128 -2 -181 -51t-53 -167v-30h234v-124h-232v-987h-138v987h-149z " />
</font>
</defs>
</svg>
